<svg xmlns="http://www.w3.org/2000/svg" width="1024" height="1024" viewBox="0 0 1024 1024">
  <defs>
    <radialGradient id="bg" cx="0.38" cy="0.24" r="1.25">
      <stop offset="0" stop-color="#16AD77"/><stop offset="0.45" stop-color="#0B8457"/><stop offset="1" stop-color="#05412D"/>
    </radialGradient>
    <linearGradient id="glyph" x1="0" y1="0" x2="0" y2="1">
      <stop offset="0" stop-color="#FDFAF1"/><stop offset="1" stop-color="#EDE3CC"/>
    </linearGradient>
    <filter id="grain">
      <feTurbulence type="fractalNoise" baseFrequency="0.35" numOctaves="2" result="n"/>
      <feColorMatrix in="n" type="matrix" values="0 0 0 0 1  0 0 0 0 1  0 0 0 0 1  0 0 0 0.05 0"/>
      <feComposite operator="over" in2="SourceGraphic"/>
    </filter>
    <filter id="lift" x="-30%" y="-30%" width="160%" height="160%">
      <feDropShadow dx="0" dy="16" stdDeviation="26" flood-color="#02241A" flood-opacity="0.5"/>
    </filter>
  </defs>
  <rect width="1024" height="1024" fill="url(#bg)"/>
  <circle cx="512" cy="512" r="400" fill="none" stroke="#FFFFFF" stroke-opacity="0.08" stroke-width="26"/>
  <circle cx="512" cy="512" r="358" fill="none" stroke="#FFFFFF" stroke-opacity="0.04" stroke-width="7"/>
  <rect width="1024" height="1024" filter="url(#grain)" fill="none"/>
  <g filter="url(#lift)">
    <path transform="translate(236.0 789.8) scale(0.457 -0.457)" d="M234 1313L246 1395L322 1395Q495 1395 630 1344.5Q765 1294 842.5 1199.5Q920 1105 920 980Q920 875 868 792.5Q816 710 722.5 662.5Q629 615 503 615L536 659L956 133Q973 111 983.5 93Q994 75 994 52Q994 0 934 0L639 0Q598 0 571.5 18.5Q545 37 522 67L157 539Q131 571 119 592Q107 613 107 639Q107 665 125.5 684.5Q144 704 171 704Q199 704 226.5 699.5Q254 695 279 695Q390 695 454 772Q518 849 518 984Q518 1081 487 1155Q456 1229 400 1271Q344 1313 273 1313ZM84 1356Q84 1374 96 1387Q108 1400 124 1400L1082 1400Q1101 1400 1112.5 1387Q1124 1374 1124 1356Q1124 1312 1082 1312L123 1312Q84 1312 84 1356ZM84 1044Q84 1061 95.5 1073.5Q107 1086 124 1086L1077 1086Q1095 1086 1107 1073.5Q1119 1061 1119 1044Q1119 1022 1107 1010.5Q1095 999 1077 999L123 999Q84 999 84 1044Z" fill="url(#glyph)"/>
    <rect x="327" y="838" width="371" height="20" rx="10" fill="url(#glyph)"/>
    <rect x="327" y="880" width="371" height="9" rx="4.5" fill="url(#glyph)"/>
  </g>
</svg>